# xmcd
#
# Track frame offsets:
#	150
#	16206
#	40530
#	59838
#	80421
#	101916
#	117132
#	139205
#	159103
#	181016
#	195495
#	212661
#
# Disc length: 3070 seconds
#
# Revision: 2
# Processed by: cddbd v1.5.1PL2 Copyright (c) Steve Scherf et al.
# Submitted via: EasyCDDAExtractor 9.1.3.1
#
DISCID=970bfc0c
DTITLE=Eyshila - Na Casa de Deus
DYEAR=1900
DGENRE=Gospel
TTITLE0=Poder
TTITLE1=Posso Clamar
TTITLE2=Na Casa de Deus
TTITLE3=Salmo1
TTITLE4=Vou Glorificar
TTITLE5=Derrama sobre mim
TTITLE6=Senhor eu Te amo
TTITLE7=Viva esperança
TTITLE8=Seja bem vindo
TTITLE9=Diante do Altar
TTITLE10=A sós com Deus
TTITLE11=Louvemos Ao Senhor
EXTD=
EXTT0=
EXTT1=
EXTT2=
EXTT3=
EXTT4=
EXTT5=
EXTT6=
EXTT7=
EXTT8=
EXTT9=
EXTT10=
EXTT11=
PLAYORDER=
